<svg xmlns="http://www.w3.org/2000/svg" xmlns:xlink="http://www.w3.org/1999/xlink" width="500" zoomAndPan="magnify" viewBox="0 0 375 374.999991" height="500" preserveAspectRatio="xMidYMid meet" version="1.0"><defs><g/><clipPath id="id1"><path d="M 50 58 L 318 58 L 318 325 L 50 325 Z M 50 58 " clip-rule="nonzero"/></clipPath><clipPath id="id2"><path d="M 188.445312 1.929688 L 334.148438 154.199219 L 140.148438 339.824219 L -5.550781 187.554688 Z M 188.445312 1.929688 " clip-rule="nonzero"/></clipPath><clipPath id="id3"><path d="M 188.445312 1.929688 L 374.074219 195.925781 L 180.074219 381.550781 L -5.550781 187.554688 Z M 188.445312 1.929688 " clip-rule="nonzero"/></clipPath></defs><rect x="-37.5" width="450" fill="#ffffff" y="-37.499999" height="449.999989" fill-opacity="1"/><rect x="-37.5" width="450" fill="#ffffff" y="-37.499999" height="449.999989" fill-opacity="1"/><rect x="-37.5" width="450" fill="#808080" y="-37.499999" height="449.999989" fill-opacity="1"/><g clip-path="url(#id1)"><g clip-path="url(#id2)"><g clip-path="url(#id3)"><path fill="#000000" d="M 245.46875 307.484375 C 234.742188 313.039062 223.203125 316.882812 211.429688 319.222656 C 201.792969 321.074219 192.011719 322.054688 182.21875 322.007812 C 180.914062 322.039062 179.613281 321.921875 178.3125 321.875 C 177.011719 321.804688 175.707031 321.777344 174.40625 321.675781 L 170.515625 321.320312 L 168.566406 321.140625 L 166.632812 320.878906 L 162.757812 320.359375 C 161.46875 320.15625 160.191406 319.902344 158.90625 319.679688 C 156.328125 319.28125 153.800781 318.652344 151.246094 318.105469 C 150.878906 318.027344 150.496094 317.941406 150.09375 317.855469 C 149.699219 317.746094 149.289062 317.632812 148.859375 317.519531 C 148.003906 317.28125 147.082031 317.027344 146.105469 316.757812 C 144.128906 316.261719 141.984375 315.492188 139.613281 314.710938 C 139.027344 314.507812 138.417969 314.324219 137.808594 314.09375 C 137.203125 313.859375 136.589844 313.617188 135.960938 313.371094 C 134.707031 312.878906 133.40625 312.367188 132.0625 311.839844 C 129.453125 310.625 126.609375 309.476562 123.792969 307.945312 C 112.3125 302.265625 99.96875 293.269531 89.496094 282.414062 C 79.113281 271.472656 70.671875 258.746094 65.5 247.027344 C 64.097656 244.144531 63.074219 241.253906 61.976562 238.589844 C 61.507812 237.226562 61.054688 235.90625 60.617188 234.632812 C 60.402344 233.992188 60.1875 233.367188 59.976562 232.753906 C 59.773438 232.136719 59.617188 231.519531 59.441406 230.921875 C 58.761719 228.523438 58.089844 226.34375 57.679688 224.347656 C 57.453125 223.359375 57.242188 222.425781 57.046875 221.5625 C 56.945312 221.128906 56.851562 220.714844 56.761719 220.3125 C 56.691406 219.910156 56.625 219.519531 56.5625 219.152344 C 54.777344 209.519531 53.859375 199.738281 53.972656 189.945312 C 54.199219 179.515625 55.703125 169.144531 58.097656 158.980469 C 60.953125 147.316406 65.304688 135.960938 71.324219 125.488281 C 77.222656 114.941406 84.847656 105.378906 93.535156 96.921875 C 102.367188 88.617188 112.257812 81.417969 123.054688 75.996094 C 133.78125 70.441406 145.316406 66.597656 157.09375 64.253906 C 166.726562 62.40625 176.507812 61.425781 186.300781 61.472656 C 187.605469 61.441406 188.90625 61.554688 190.210938 61.601562 C 191.511719 61.671875 192.816406 61.703125 194.113281 61.800781 L 198.007812 62.160156 L 199.953125 62.335938 L 201.890625 62.601562 L 205.765625 63.121094 C 207.050781 63.324219 208.328125 63.578125 209.613281 63.796875 C 212.191406 64.199219 214.722656 64.828125 217.273438 65.371094 C 217.640625 65.453125 218.023438 65.539062 218.425781 65.625 C 218.820312 65.734375 219.234375 65.84375 219.660156 65.960938 C 220.515625 66.195312 221.4375 66.449219 222.417969 66.722656 C 224.390625 67.21875 226.539062 67.988281 228.90625 68.765625 C 229.496094 68.96875 230.105469 69.15625 230.710938 69.386719 C 231.316406 69.621094 231.933594 69.863281 232.5625 70.109375 C 233.816406 70.601562 235.117188 71.113281 236.457031 71.640625 C 239.070312 72.851562 241.914062 74.003906 244.726562 75.53125 C 256.210938 81.214844 268.550781 90.210938 279.027344 101.066406 C 289.40625 112.007812 297.847656 124.734375 303.019531 136.453125 C 304.421875 139.335938 305.445312 142.222656 306.542969 144.890625 C 307.011719 146.25 307.464844 147.574219 307.902344 148.847656 C 308.121094 149.484375 308.335938 150.113281 308.542969 150.726562 C 308.746094 151.34375 308.902344 151.960938 309.082031 152.558594 C 309.757812 154.957031 310.429688 157.136719 310.839844 159.128906 C 311.066406 160.121094 311.277344 161.050781 311.476562 161.917969 C 311.574219 162.347656 311.667969 162.765625 311.757812 163.167969 C 311.828125 163.570312 311.894531 163.957031 311.960938 164.328125 C 313.746094 173.960938 314.660156 183.742188 314.546875 193.535156 C 314.324219 203.964844 312.816406 214.335938 310.421875 224.5 C 307.566406 236.164062 303.214844 247.519531 297.195312 257.992188 C 291.300781 268.535156 283.671875 278.101562 274.988281 286.558594 C 266.15625 294.863281 256.265625 302.058594 245.46875 307.484375 Z M 277.136719 288.675781 L 277.144531 288.667969 C 286.011719 280.03125 293.808594 270.265625 299.847656 259.492188 C 306.011719 248.796875 310.460938 237.183594 313.347656 225.261719 L 314.601562 219.652344 C 314.601562 219.652344 314.898438 218.097656 315.335938 215.765625 C 315.84375 213.445312 316.191406 210.296875 316.652344 207.167969 C 316.917969 204.015625 317.296875 200.875 317.335938 198.503906 C 317.441406 196.132812 317.507812 194.554688 317.507812 194.554688 C 317.507812 194.554688 317.519531 194.160156 317.523438 193.46875 C 317.523438 192.777344 317.53125 191.789062 317.535156 190.605469 C 317.609375 188.230469 317.417969 185.078125 317.292969 181.917969 C 317.179688 180.34375 317.015625 178.769531 316.890625 177.292969 C 316.820312 176.554688 316.757812 175.84375 316.695312 175.167969 C 316.601562 174.496094 316.511719 173.859375 316.429688 173.269531 C 316.105469 170.921875 315.886719 169.355469 315.886719 169.355469 C 315.886719 169.355469 315.855469 169 315.753906 168.46875 C 315.660156 167.941406 315.539062 167.234375 315.414062 166.527344 C 315.167969 165.113281 314.917969 163.699219 314.917969 163.699219 C 314.855469 163.320312 314.785156 162.925781 314.714844 162.511719 C 314.625 162.101562 314.53125 161.675781 314.429688 161.230469 C 314.230469 160.34375 314.015625 159.390625 313.785156 158.378906 C 313.371094 156.335938 312.6875 154.105469 311.996094 151.648438 C 311.816406 151.039062 311.652344 150.40625 311.449219 149.773438 C 311.234375 149.144531 311.015625 148.503906 310.796875 147.851562 C 310.347656 146.542969 309.886719 145.191406 309.410156 143.792969 C 308.289062 141.066406 307.242188 138.109375 305.808594 135.160156 C 300.523438 123.15625 291.886719 110.121094 281.257812 98.925781 C 270.546875 87.816406 257.902344 78.613281 246.144531 72.804688 C 243.261719 71.242188 240.351562 70.0625 237.675781 68.828125 C 236.300781 68.289062 234.972656 67.765625 233.683594 67.261719 C 233.042969 67.011719 232.410156 66.765625 231.792969 66.523438 C 231.171875 66.292969 230.546875 66.101562 229.941406 65.894531 C 227.519531 65.097656 225.320312 64.316406 223.300781 63.8125 C 222.296875 63.535156 221.355469 63.28125 220.476562 63.039062 C 220.039062 62.921875 219.617188 62.808594 219.210938 62.699219 C 218.800781 62.609375 218.40625 62.523438 218.03125 62.445312 C 218.03125 62.445312 216.632812 62.132812 215.230469 61.824219 C 214.527344 61.671875 213.828125 61.515625 213.304688 61.398438 C 212.78125 61.273438 212.425781 61.230469 212.425781 61.230469 C 212.425781 61.230469 210.871094 60.941406 208.539062 60.511719 C 207.953125 60.40625 207.324219 60.289062 206.65625 60.164062 C 205.984375 60.074219 205.273438 59.976562 204.539062 59.878906 C 203.070312 59.683594 201.507812 59.449219 199.9375 59.269531 C 196.785156 59.007812 193.644531 58.675781 191.269531 58.644531 C 190.085938 58.597656 189.097656 58.558594 188.40625 58.53125 C 187.71875 58.503906 187.320312 58.5 187.320312 58.5 C 187.320312 58.5 185.742188 58.496094 183.371094 58.496094 C 181 58.429688 177.84375 58.671875 174.683594 58.796875 C 171.539062 59.121094 168.378906 59.328125 166.035156 59.730469 C 163.6875 60.070312 162.121094 60.292969 162.121094 60.292969 L 156.464844 61.300781 C 144.421875 63.65625 132.625 67.59375 121.667969 73.277344 C 110.640625 78.835938 100.542969 86.195312 91.519531 94.675781 L 91.511719 94.679688 L 91.449219 94.742188 L 91.382812 94.804688 L 91.378906 94.8125 C 82.511719 103.449219 74.710938 113.214844 68.671875 123.984375 C 62.511719 134.683594 58.058594 146.292969 55.175781 158.21875 L 53.917969 163.828125 C 53.917969 163.828125 53.625 165.382812 53.183594 167.714844 C 52.679688 170.035156 52.332031 173.183594 51.871094 176.3125 C 51.605469 179.464844 51.222656 182.605469 51.183594 184.976562 C 51.082031 187.34375 51.011719 188.925781 51.011719 188.925781 C 51.011719 188.925781 51 189.320312 51 190.011719 C 50.996094 190.703125 50.988281 191.6875 50.984375 192.875 C 50.910156 195.246094 51.105469 198.402344 51.230469 201.5625 C 51.339844 203.136719 51.503906 204.707031 51.632812 206.183594 C 51.699219 206.921875 51.765625 207.636719 51.828125 208.3125 C 51.921875 208.984375 52.007812 209.621094 52.089844 210.207031 C 52.417969 212.558594 52.636719 214.121094 52.636719 214.121094 C 52.636719 214.121094 52.664062 214.480469 52.765625 215.007812 C 52.859375 215.539062 52.984375 216.246094 53.105469 216.953125 C 53.355469 218.367188 53.601562 219.78125 53.601562 219.78125 C 53.667969 220.15625 53.734375 220.554688 53.804688 220.96875 C 53.894531 221.378906 53.992188 221.804688 54.089844 222.25 C 54.289062 223.136719 54.507812 224.085938 54.734375 225.101562 C 55.152344 227.140625 55.835938 229.375 56.523438 231.832031 C 56.703125 232.441406 56.867188 233.074219 57.074219 233.707031 C 57.285156 234.335938 57.503906 234.976562 57.726562 235.628906 C 58.171875 236.933594 58.636719 238.289062 59.113281 239.683594 C 60.230469 242.414062 61.28125 245.371094 62.710938 248.320312 C 68 260.320312 76.636719 273.359375 87.261719 284.554688 C 97.976562 295.660156 110.621094 304.863281 122.378906 310.675781 C 125.261719 312.234375 128.171875 313.414062 130.847656 314.652344 C 132.21875 315.191406 133.550781 315.714844 134.835938 316.214844 C 135.480469 316.46875 136.109375 316.714844 136.730469 316.953125 C 137.351562 317.1875 137.976562 317.378906 138.578125 317.585938 C 141.003906 318.382812 143.203125 319.164062 145.222656 319.667969 C 146.226562 319.941406 147.167969 320.199219 148.042969 320.4375 C 148.480469 320.558594 148.90625 320.671875 149.308594 320.78125 C 149.722656 320.867188 150.113281 320.953125 150.488281 321.035156 C 150.488281 321.035156 151.890625 321.34375 153.292969 321.65625 C 153.992188 321.808594 154.691406 321.964844 155.21875 322.078125 C 155.738281 322.203125 156.097656 322.25 156.097656 322.25 C 156.097656 322.25 157.652344 322.535156 159.984375 322.964844 C 160.566406 323.074219 161.199219 323.191406 161.863281 323.3125 C 162.539062 323.40625 163.246094 323.503906 163.980469 323.601562 C 165.453125 323.792969 167.015625 324.027344 168.585938 324.210938 C 171.734375 324.472656 174.878906 324.804688 177.25 324.835938 C 178.433594 324.882812 179.421875 324.921875 180.113281 324.949219 C 180.804688 324.976562 181.199219 324.980469 181.199219 324.980469 C 181.199219 324.980469 182.78125 324.980469 185.148438 324.984375 C 187.523438 325.050781 190.675781 324.808594 193.835938 324.679688 C 196.984375 324.359375 200.144531 324.152344 202.484375 323.75 C 204.835938 323.410156 206.398438 323.183594 206.398438 323.183594 L 212.058594 322.179688 C 224.097656 319.824219 235.894531 315.886719 246.851562 310.203125 C 257.878906 304.644531 267.980469 297.28125 277 288.804688 L 277.007812 288.800781 L 277.074219 288.738281 L 277.136719 288.675781 " fill-opacity="1" fill-rule="nonzero"/></g></g></g><g fill="#000000" fill-opacity="1"><g transform="translate(180.923485, 326.162108)"><g><path d="M 0.125 -7.84375 C 0.0625 -8.78125 0.164062 -9.71875 0.4375 -10.65625 C 0.707031 -11.601562 1.140625 -12.457031 1.734375 -13.21875 C 2.328125 -13.988281 3.078125 -14.628906 3.984375 -15.140625 C 4.898438 -15.660156 5.957031 -15.960938 7.15625 -16.046875 C 8.5625 -16.148438 9.804688 -15.925781 10.890625 -15.375 C 11.972656 -14.820312 12.800781 -14.0625 13.375 -13.09375 L 11.1875 -11.359375 C 10.957031 -11.773438 10.6875 -12.125 10.375 -12.40625 C 10.0625 -12.6875 9.726562 -12.898438 9.375 -13.046875 C 9.03125 -13.191406 8.675781 -13.289062 8.3125 -13.34375 C 7.957031 -13.394531 7.609375 -13.410156 7.265625 -13.390625 C 6.503906 -13.335938 5.851562 -13.140625 5.3125 -12.796875 C 4.78125 -12.453125 4.347656 -12.023438 4.015625 -11.515625 C 3.691406 -11.003906 3.457031 -10.4375 3.3125 -9.8125 C 3.164062 -9.195312 3.113281 -8.582031 3.15625 -7.96875 C 3.207031 -7.289062 3.359375 -6.644531 3.609375 -6.03125 C 3.867188 -5.414062 4.21875 -4.882812 4.65625 -4.4375 C 5.09375 -3.988281 5.597656 -3.640625 6.171875 -3.390625 C 6.753906 -3.148438 7.375 -3.050781 8.03125 -3.09375 C 8.382812 -3.113281 8.738281 -3.179688 9.09375 -3.296875 C 9.457031 -3.410156 9.800781 -3.570312 10.125 -3.78125 C 10.457031 -3.988281 10.757812 -4.25 11.03125 -4.5625 C 11.300781 -4.882812 11.507812 -5.257812 11.65625 -5.6875 L 14.1875 -4.453125 C 13.988281 -3.867188 13.675781 -3.335938 13.25 -2.859375 C 12.820312 -2.390625 12.332031 -1.984375 11.78125 -1.640625 C 11.238281 -1.296875 10.648438 -1.019531 10.015625 -0.8125 C 9.390625 -0.613281 8.765625 -0.492188 8.140625 -0.453125 C 7.035156 -0.367188 6.007812 -0.523438 5.0625 -0.921875 C 4.113281 -1.328125 3.285156 -1.875 2.578125 -2.5625 C 1.878906 -3.257812 1.3125 -4.066406 0.875 -4.984375 C 0.4375 -5.910156 0.1875 -6.863281 0.125 -7.84375 Z M 0.125 -7.84375 "/></g></g></g><g fill="#000000" fill-opacity="1"><g transform="translate(205.710435, 323.468724)"><g><path d="M 11.328125 -5.5 L 11.953125 -2.953125 L 1.5625 -0.390625 L -2.125 -15.34375 L 8.0625 -17.859375 L 8.6875 -15.3125 L 1.390625 -13.5 L 2.28125 -9.90625 L 8.59375 -11.46875 L 9.171875 -9.109375 L 2.859375 -7.546875 L 3.828125 -3.640625 Z M 11.328125 -5.5 "/></g></g></g><g fill="#000000" fill-opacity="1"><g transform="translate(227.919431, 317.172054)"><g><path d="M 1.46875 -0.640625 L -4.703125 -14.765625 L 1.546875 -17.5 C 2.191406 -17.78125 2.847656 -17.898438 3.515625 -17.859375 C 4.191406 -17.828125 4.828125 -17.675781 5.421875 -17.40625 C 6.015625 -17.144531 6.546875 -16.78125 7.015625 -16.3125 C 7.492188 -15.84375 7.859375 -15.320312 8.109375 -14.75 C 8.503906 -13.84375 8.632812 -12.914062 8.5 -11.96875 C 8.375 -11.019531 7.992188 -10.207031 7.359375 -9.53125 L 12.890625 -5.625 L 9.8125 -4.28125 L 4.859375 -7.75 L 2.140625 -6.578125 L 4.203125 -1.84375 Z M 1.078125 -8.984375 L 4.53125 -10.484375 C 4.78125 -10.585938 4.988281 -10.75 5.15625 -10.96875 C 5.320312 -11.1875 5.441406 -11.429688 5.515625 -11.703125 C 5.585938 -11.984375 5.609375 -12.28125 5.578125 -12.59375 C 5.554688 -12.914062 5.476562 -13.234375 5.34375 -13.546875 C 5.195312 -13.878906 5.007812 -14.160156 4.78125 -14.390625 C 4.5625 -14.617188 4.3125 -14.800781 4.03125 -14.9375 C 3.757812 -15.070312 3.484375 -15.140625 3.203125 -15.140625 C 2.921875 -15.148438 2.660156 -15.101562 2.421875 -15 L -0.90625 -13.5625 Z M 1.078125 -8.984375 "/></g></g></g><g fill="#000000" fill-opacity="1"><g transform="translate(250.022838, 306.56313)"><g><path d="M -3.546875 -16.140625 L -1.34375 -17.609375 L 12.078125 -8.03125 L 9.515625 -6.328125 L 6.1875 -8.734375 L 1.703125 -5.75 L 2.65625 -1.765625 L 0.09375 -0.0625 Z M 4.5625 -10.1875 L -0.5625 -14.03125 L 0.9375 -7.78125 Z M 4.5625 -10.1875 "/></g></g></g><g fill="#000000" fill-opacity="1"><g transform="translate(270.239553, 292.165487)"><g><path d="M 10.078125 -9.953125 L 2.90625 -17.21875 L 5.4375 -9.03125 L 4.28125 -7.890625 L -3.90625 -10.5 L 3.265625 -3.234375 L 1.140625 -1.125 L -9.6875 -12.078125 L -7.40625 -14.328125 L 2 -11.3125 L -0.875 -20.78125 L 1.390625 -23.015625 L 12.21875 -12.0625 Z M 10.078125 -9.953125 "/></g></g></g><g fill="#000000" fill-opacity="1"><g transform="translate(289.72336, 271.089557)"><g><path d="M 0.953125 -1.296875 L -11.484375 -10.390625 L -9.734375 -12.796875 L 2.703125 -3.703125 Z M 0.953125 -1.296875 "/></g></g></g><g fill="#000000" fill-opacity="1"><g transform="translate(298.877678, 257.883806)"><g><path d="M -6.59375 -4.234375 C -7.425781 -4.671875 -8.171875 -5.253906 -8.828125 -5.984375 C -9.484375 -6.722656 -9.976562 -7.546875 -10.3125 -8.453125 C -10.644531 -9.367188 -10.789062 -10.347656 -10.75 -11.390625 C -10.707031 -12.429688 -10.40625 -13.484375 -9.84375 -14.546875 C -9.1875 -15.796875 -8.335938 -16.734375 -7.296875 -17.359375 C -6.265625 -17.984375 -5.1875 -18.285156 -4.0625 -18.265625 L -3.75 -15.5 C -4.226562 -15.53125 -4.664062 -15.484375 -5.0625 -15.359375 C -5.46875 -15.234375 -5.820312 -15.066406 -6.125 -14.859375 C -6.4375 -14.648438 -6.707031 -14.40625 -6.9375 -14.125 C -7.175781 -13.84375 -7.375 -13.546875 -7.53125 -13.234375 C -7.894531 -12.566406 -8.070312 -11.914062 -8.0625 -11.28125 C -8.050781 -10.644531 -7.914062 -10.050781 -7.65625 -9.5 C -7.394531 -8.945312 -7.035156 -8.441406 -6.578125 -7.984375 C -6.128906 -7.535156 -5.632812 -7.171875 -5.09375 -6.890625 C -4.488281 -6.566406 -3.859375 -6.351562 -3.203125 -6.25 C -2.546875 -6.15625 -1.914062 -6.171875 -1.3125 -6.296875 C -0.707031 -6.429688 -0.144531 -6.675781 0.375 -7.03125 C 0.894531 -7.382812 1.304688 -7.851562 1.609375 -8.4375 C 1.773438 -8.75 1.90625 -9.09375 2 -9.46875 C 2.101562 -9.84375 2.148438 -10.222656 2.140625 -10.609375 C 2.128906 -10.992188 2.054688 -11.382812 1.921875 -11.78125 C 1.796875 -12.175781 1.59375 -12.550781 1.3125 -12.90625 L 3.703125 -14.40625 C 4.097656 -13.925781 4.378906 -13.378906 4.546875 -12.765625 C 4.722656 -12.160156 4.816406 -11.53125 4.828125 -10.875 C 4.835938 -10.226562 4.757812 -9.582031 4.59375 -8.9375 C 4.425781 -8.289062 4.195312 -7.691406 3.90625 -7.140625 C 3.394531 -6.160156 2.71875 -5.375 1.875 -4.78125 C 1.039062 -4.195312 0.144531 -3.789062 -0.8125 -3.5625 C -1.78125 -3.332031 -2.769531 -3.269531 -3.78125 -3.375 C -4.789062 -3.488281 -5.726562 -3.773438 -6.59375 -4.234375 Z M -6.59375 -4.234375 "/></g></g></g><g fill="#000000" fill-opacity="1"><g transform="translate(309.795572, 235.340266)"><g><path d="M 2.53125 -7.78125 C 2.195312 -6.695312 1.679688 -5.78125 0.984375 -5.03125 C 0.296875 -4.289062 -0.488281 -3.71875 -1.375 -3.3125 C -2.269531 -2.90625 -3.222656 -2.664062 -4.234375 -2.59375 C -5.242188 -2.519531 -6.21875 -2.628906 -7.15625 -2.921875 C -8.132812 -3.234375 -9.015625 -3.710938 -9.796875 -4.359375 C -10.578125 -5.003906 -11.210938 -5.753906 -11.703125 -6.609375 C -12.203125 -7.460938 -12.515625 -8.394531 -12.640625 -9.40625 C -12.773438 -10.425781 -12.679688 -11.453125 -12.359375 -12.484375 C -12.035156 -13.546875 -11.519531 -14.445312 -10.8125 -15.1875 C -10.101562 -15.925781 -9.300781 -16.5 -8.40625 -16.90625 C -7.507812 -17.3125 -6.554688 -17.546875 -5.546875 -17.609375 C -4.535156 -17.679688 -3.566406 -17.570312 -2.640625 -17.28125 C -1.660156 -16.976562 -0.78125 -16.503906 0 -15.859375 C 0.769531 -15.222656 1.394531 -14.484375 1.875 -13.640625 C 2.363281 -12.796875 2.675781 -11.867188 2.8125 -10.859375 C 2.945312 -9.847656 2.851562 -8.820312 2.53125 -7.78125 Z M -6.25 -5.828125 C -5.613281 -5.628906 -4.96875 -5.535156 -4.3125 -5.546875 C -3.664062 -5.554688 -3.054688 -5.671875 -2.484375 -5.890625 C -1.910156 -6.117188 -1.40625 -6.453125 -0.96875 -6.890625 C -0.53125 -7.335938 -0.207031 -7.898438 0 -8.578125 C 0.207031 -9.265625 0.253906 -9.914062 0.140625 -10.53125 C 0.0351562 -11.15625 -0.191406 -11.722656 -0.546875 -12.234375 C -0.910156 -12.753906 -1.359375 -13.195312 -1.890625 -13.5625 C -2.421875 -13.9375 -2.988281 -14.21875 -3.59375 -14.40625 C -4.226562 -14.601562 -4.875 -14.691406 -5.53125 -14.671875 C -6.1875 -14.660156 -6.796875 -14.546875 -7.359375 -14.328125 C -7.929688 -14.109375 -8.429688 -13.769531 -8.859375 -13.3125 C -9.296875 -12.863281 -9.617188 -12.304688 -9.828125 -11.640625 C -10.046875 -10.953125 -10.097656 -10.289062 -9.984375 -9.65625 C -9.867188 -9.03125 -9.632812 -8.46875 -9.28125 -7.96875 C -8.925781 -7.46875 -8.484375 -7.03125 -7.953125 -6.65625 C -7.421875 -6.289062 -6.851562 -6.015625 -6.25 -5.828125 Z M -6.25 -5.828125 "/></g></g></g><g fill="#000000" fill-opacity="1"><g transform="translate(316.662267, 209.741298)"><g><path d="M -9.953125 -12.09375 C -10.066406 -12.019531 -10.226562 -11.859375 -10.4375 -11.609375 C -10.644531 -11.359375 -10.851562 -11.054688 -11.0625 -10.703125 C -11.28125 -10.347656 -11.472656 -9.945312 -11.640625 -9.5 C -11.804688 -9.0625 -11.921875 -8.617188 -11.984375 -8.171875 C -12.085938 -7.347656 -12.007812 -6.71875 -11.75 -6.28125 C -11.5 -5.84375 -11.101562 -5.59375 -10.5625 -5.53125 C -10.238281 -5.488281 -9.960938 -5.53125 -9.734375 -5.65625 C -9.515625 -5.78125 -9.304688 -5.972656 -9.109375 -6.234375 C -8.921875 -6.503906 -8.734375 -6.851562 -8.546875 -7.28125 C -8.367188 -7.707031 -8.171875 -8.191406 -7.953125 -8.734375 C -7.660156 -9.460938 -7.359375 -10.117188 -7.046875 -10.703125 C -6.742188 -11.285156 -6.394531 -11.765625 -6 -12.140625 C -5.601562 -12.515625 -5.148438 -12.789062 -4.640625 -12.96875 C -4.128906 -13.144531 -3.523438 -13.191406 -2.828125 -13.109375 C -2.003906 -13.003906 -1.316406 -12.757812 -0.765625 -12.375 C -0.222656 -11.988281 0.191406 -11.515625 0.484375 -10.953125 C 0.773438 -10.390625 0.957031 -9.753906 1.03125 -9.046875 C 1.113281 -8.347656 1.109375 -7.625 1.015625 -6.875 C 0.878906 -5.71875 0.566406 -4.601562 0.078125 -3.53125 C -0.410156 -2.457031 -1.019531 -1.515625 -1.75 -0.703125 L -4.15625 -2.328125 C -4 -2.441406 -3.796875 -2.65625 -3.546875 -2.96875 C -3.296875 -3.28125 -3.039062 -3.648438 -2.78125 -4.078125 C -2.519531 -4.515625 -2.28125 -5.003906 -2.0625 -5.546875 C -1.851562 -6.085938 -1.710938 -6.65625 -1.640625 -7.25 C -1.441406 -8.882812 -1.867188 -9.765625 -2.921875 -9.890625 C -3.242188 -9.929688 -3.53125 -9.875 -3.78125 -9.71875 C -4.03125 -9.5625 -4.257812 -9.320312 -4.46875 -9 C -4.6875 -8.675781 -4.898438 -8.273438 -5.109375 -7.796875 C -5.316406 -7.328125 -5.546875 -6.800781 -5.796875 -6.21875 C -6.085938 -5.519531 -6.382812 -4.914062 -6.6875 -4.40625 C -6.988281 -3.894531 -7.320312 -3.476562 -7.6875 -3.15625 C -8.050781 -2.84375 -8.453125 -2.617188 -8.890625 -2.484375 C -9.335938 -2.359375 -9.859375 -2.332031 -10.453125 -2.40625 C -11.222656 -2.5 -11.894531 -2.722656 -12.46875 -3.078125 C -13.039062 -3.441406 -13.492188 -3.90625 -13.828125 -4.46875 C -14.171875 -5.03125 -14.398438 -5.660156 -14.515625 -6.359375 C -14.640625 -7.066406 -14.65625 -7.8125 -14.5625 -8.59375 C -14.425781 -9.664062 -14.132812 -10.632812 -13.6875 -11.5 C -13.25 -12.363281 -12.753906 -13.097656 -12.203125 -13.703125 Z M -9.953125 -12.09375 "/></g></g></g><g fill="#000000" fill-opacity="1"><g transform="translate(86.750551, 223.499985)"><g><path d="M 5.3125 -1.59375 L 11.671875 -3.1875 L 11.671875 -71.140625 L 5.3125 -72.734375 L 5.3125 -74.3125 L 62.109375 -74.3125 L 62.109375 -55.203125 L 58.921875 -55.203125 C 57.578125 -56.265625 56.410156 -57.613281 55.421875 -59.25 C 53.160156 -63.070312 52.03125 -67.210938 52.03125 -71.671875 L 29.203125 -71.671875 L 29.203125 -38.21875 L 41.40625 -38.21875 C 41.90625 -40.90625 42.828125 -43.421875 44.171875 -45.765625 C 44.734375 -46.828125 45.40625 -47.851562 46.1875 -48.84375 L 49.375 -48.84375 L 49.375 -24.953125 L 46.1875 -24.953125 C 45.40625 -25.941406 44.734375 -26.96875 44.171875 -28.03125 C 42.828125 -30.363281 41.90625 -32.875 41.40625 -35.5625 L 29.203125 -35.5625 L 29.203125 -3.1875 L 35.5625 -1.59375 L 35.5625 0 L 5.3125 0 Z M 5.3125 -1.59375 "/></g></g></g><g fill="#000000" fill-opacity="1"><g transform="translate(145.250856, 223.499985)"><g><path d="M 5.3125 -1.59375 L 11.671875 -3.1875 L 11.671875 -71.140625 L 5.3125 -72.734375 L 5.3125 -74.3125 L 62.109375 -74.3125 L 62.109375 -55.203125 L 58.921875 -55.203125 C 57.578125 -56.265625 56.410156 -57.613281 55.421875 -59.25 C 53.160156 -63.070312 52.03125 -67.210938 52.03125 -71.671875 L 29.203125 -71.671875 L 29.203125 -38.21875 L 41.40625 -38.21875 C 41.90625 -40.90625 42.828125 -43.421875 44.171875 -45.765625 C 44.734375 -46.828125 45.40625 -47.851562 46.1875 -48.84375 L 49.375 -48.84375 L 49.375 -24.953125 L 46.1875 -24.953125 C 45.40625 -25.941406 44.734375 -26.96875 44.171875 -28.03125 C 42.828125 -30.363281 41.90625 -32.875 41.40625 -35.5625 L 29.203125 -35.5625 L 29.203125 -2.65625 L 54.140625 -2.65625 C 54.140625 -7.113281 55.273438 -11.253906 57.546875 -15.078125 C 58.535156 -16.703125 59.703125 -18.046875 61.046875 -19.109375 L 64.234375 -19.109375 L 64.234375 0 L 5.3125 0 Z M 5.3125 -1.59375 "/></g></g></g><g fill="#000000" fill-opacity="1"><g transform="translate(207.467171, 223.499985)"><g><path d="M 5.3125 -1.59375 L 11.671875 -3.1875 L 11.671875 -71.140625 L 5.3125 -72.734375 L 5.3125 -74.3125 L 33.4375 -74.3125 C 45.476562 -74.3125 54.148438 -72.488281 59.453125 -68.84375 C 64.765625 -65.207031 67.421875 -60.128906 67.421875 -53.609375 C 67.421875 -49.222656 66.25 -45.664062 63.90625 -42.9375 C 61.570312 -40.21875 58.566406 -38.1875 54.890625 -36.84375 C 50.992188 -35.351562 46.851562 -34.570312 42.46875 -34.5 L 42.46875 -33.96875 C 45.082031 -33.832031 47.382812 -33.445312 49.375 -32.8125 C 54.320312 -31.25 57.679688 -28.453125 59.453125 -24.421875 L 69.015625 -3.1875 L 74.3125 -1.59375 L 74.3125 0 L 59.453125 0 C 53.648438 0 49.40625 -3.007812 46.71875 -9.03125 L 36.09375 -32.90625 L 29.203125 -32.90625 L 29.203125 -3.1875 L 36.625 -1.59375 L 36.625 0 L 5.3125 0 Z M 33.4375 -35.5625 C 38.394531 -35.5625 42.289062 -37.117188 45.125 -40.234375 C 47.957031 -43.347656 49.375 -47.804688 49.375 -53.609375 C 49.375 -59.421875 47.957031 -63.882812 45.125 -67 C 42.289062 -70.113281 38.394531 -71.671875 33.4375 -71.671875 L 29.203125 -71.671875 L 29.203125 -35.5625 Z M 33.4375 -35.5625 "/></g></g></g></svg>